<svg xmlns="http://www.w3.org/2000/svg" width="54.55" height="61.143" viewBox="0 0 54.55 61.143">
  <g id="Group_334" data-name="Group 334" transform="translate(-266.385 -65.098)">
    <rect id="Rectangle_368" data-name="Rectangle 368" width="12.352" height="1.872" transform="translate(287.433 65.098)" fill="#fff"/>
    <path id="Path_933" data-name="Path 933" d="M320.367,99.745a156.427,156.427,0,0,0-2.76-21.761,9.627,9.627,0,0,0-6.415-7.876c-1.013-.392-2.615-.977-4.168-1.537l-.051-.019c-4.212-1.567-6.466-3.428-7.25-3.428a3.056,3.056,0,0,1,.144.9l-.039.012v-.407H287.452v.393c-.04-.013-.081-.022-.121-.036a2.545,2.545,0,0,1,.144-.857c-.783,0-3.037,1.861-7.249,3.428-1.311.488-2.48.919-3.5,1.328-.215.081-.416.158-.6.228a12.193,12.193,0,0,0-1.794.854,5.871,5.871,0,0,0-2.142,1.7l.011.008a10.3,10.3,0,0,0-2.489,5.309,156.418,156.418,0,0,0-2.761,21.761c-.487,8.364-.568,16.4-.568,16.4l.244,7.552a13.568,13.568,0,0,0,6.415-.081s.081-5.2.325-9.663a101.283,101.283,0,0,1,1.543-14.372s1.868-7.876,2.792-10.925c.266-.568.472-1.071.636-1.527.014.456.025.921.025,1.406v35.756a58.7,58.7,0,0,0,15.184,1.959,55.454,55.454,0,0,0,15.286-1.959V88.536c0-.6.015-1.176.037-1.732a16.578,16.578,0,0,0,.746,1.853c.924,3.049,2.792,10.925,2.792,10.925a101.359,101.359,0,0,1,1.543,14.372c.244,4.466.325,9.663.325,9.663a13.568,13.568,0,0,0,6.415.081l.244-7.552S320.854,108.108,320.367,99.745ZM309.4,82.124a1.413,1.413,0,0,1-.051.16c.127-.683.271-1.321.433-1.908C309.68,80.933,309.559,81.507,309.4,82.124Z" transform="translate(0 -0.011)" fill="#b2b2b2"/>
    <path id="Path_934" data-name="Path 934" d="M309.254,71.135c6.8,0,7.7-4.734,7.7-5.325a4.66,4.66,0,0,0-1.587-.7s.777,4.285-6.125,4.285c-6.413,0-6.125-4.285-6.125-4.285a4.662,4.662,0,0,0-1.586.7S302.508,71.135,309.254,71.135Z" transform="translate(-15.646 -0.003)" fill="#fff"/>
    <rect id="Rectangle_369" data-name="Rectangle 369" width="12.352" height="1.872" transform="translate(287.433 65.098)" fill="#ededed"/>
    <path id="Path_935" data-name="Path 935" d="M309.254,71.135c6.8,0,7.7-4.734,7.7-5.325a4.66,4.66,0,0,0-1.587-.7s.777,4.285-6.125,4.285c-6.413,0-6.125-4.285-6.125-4.285a4.662,4.662,0,0,0-1.586.7S302.508,71.135,309.254,71.135Z" transform="translate(-15.646 -0.003)" fill="#ededed"/>
    <path id="Path_936" data-name="Path 936" d="M288.074,136.494c-.249-7.226-.756-21.953-1.094-31.743a19.358,19.358,0,0,0-7.913-15.464l0-.009,0,0-.023-.018c0,.011.008.023.013.034a39.259,39.259,0,0,0-5.183,12.647,133.212,133.212,0,0,0-2.233,32.845,11.882,11.882,0,0,0,3.654-.426s.122-5.136.366-9.6a96.654,96.654,0,0,1,1.462-14.108s1.838-8.236,2.882-11.246a7.641,7.641,0,0,0,.568-1.6c.025.581.043.846.043,1.479v35.756A52.208,52.208,0,0,0,288.074,136.494Z" transform="translate(-2.243 -10.757)" fill="#00394f" opacity="0.1"/>
    <path id="Path_937" data-name="Path 937" d="M329.643,136.482c.249-7.226.757-21.953,1.094-31.743a19.357,19.357,0,0,1,7.913-15.464l0-.009,0,0,.023-.018c0,.011-.008.023-.012.034a39.256,39.256,0,0,1,5.183,12.647,133.229,133.229,0,0,1,2.233,32.845,11.928,11.928,0,0,1-3.654-.426s-.121-5.136-.365-9.6a96.743,96.743,0,0,0-1.462-14.108s-1.838-8.236-2.882-11.246a7.636,7.636,0,0,1-.569-1.6c-.024.581-.042.847-.042,1.479v35.757A52.3,52.3,0,0,1,329.643,136.482Z" transform="translate(-28.159 -10.751)" fill="#00394f" opacity="0.1"/>
    <path id="Path_938" data-name="Path 938" d="M269.715,170.592a10.351,10.351,0,0,1-2.9-.376l-.037-.539a15.829,15.829,0,0,0,6.446-.009l-.009.492A14.836,14.836,0,0,1,269.715,170.592Z" transform="translate(-0.176 -46.548)" fill="#fff"/>
    <path id="Path_939" data-name="Path 939" d="M356.3,170.643a10.359,10.359,0,0,0,2.9-.376l.037-.539a15.827,15.827,0,0,1-6.446-.009l.009.492A14.862,14.862,0,0,0,356.3,170.643Z" transform="translate(-38.461 -46.571)" fill="#fff"/>
  </g>
</svg>
