<?xml version="1.0" encoding="utf-8"?>
<!-- Generator: Adobe Illustrator 23.0.3, SVG Export Plug-In . SVG Version: 6.00 Build 0)  -->
<svg version="1.1" id="Layer_1" xmlns="http://www.w3.org/2000/svg" xmlns:xlink="http://www.w3.org/1999/xlink" x="0px" y="0px"
	 viewBox="0 0 112.77 27.03" style="enable-background:new 0 0 112.77 27.03;" xml:space="preserve">
<style type="text/css">
	.st0{fill:#FFFFFF;}
	.st1{enable-background:new    ;}
</style>
<g id="Group_339" transform="translate(-151 -684.973)">
	<g id="Group_7" transform="translate(-275.013 -1139.56)">
		<path id="Path_39" class="st0" d="M497.4,1825.29c0-0.35,0.29-0.64,0.64-0.64c0,0,0,0,0,0h13.8c0.35,0,0.64,0.29,0.64,0.64
			c0,0,0,0,0,0v2.76c0,0.35-0.29,0.64-0.64,0.64c0,0,0,0,0,0h-10.04v5.53h8.38c0.35,0.01,0.63,0.29,0.64,0.64v2.8
			c0,0.35-0.29,0.64-0.64,0.64c0,0,0,0,0,0h-8.38v5.9h10.04c0.35,0,0.64,0.29,0.64,0.64c0,0,0,0,0,0v2.77
			c0,0.35-0.29,0.64-0.64,0.64c0,0,0,0,0,0h-13.8c-0.35,0-0.64-0.28-0.65-0.64c0,0,0,0,0,0L497.4,1825.29z"/>
		<path id="Path_40" class="st0" d="M526.82,1824.53c6.57,0.02,11.88,5.36,11.86,11.92c-0.02,6.57-5.36,11.88-11.92,11.86
			c-6.54-0.02-11.85-5.32-11.86-11.86c-0.01-6.57,5.3-11.91,11.87-11.93C526.79,1824.53,526.81,1824.53,526.82,1824.53z
			 M526.82,1844.02c4.2,0,7.6-3.4,7.6-7.6c0-4.2-3.4-7.6-7.6-7.6c-4.2,0-7.6,3.4-7.6,7.6c0,0.01,0,0.02,0,0.03
			C519.26,1840.64,522.65,1844.01,526.82,1844.02L526.82,1844.02z"/>
		<path id="Path_41" class="st0" d="M457.08,1847.39l10.45-22.49c0.1-0.23,0.32-0.37,0.57-0.37h0.34c0.25-0.02,0.48,0.13,0.57,0.37
			l10.35,22.49c0.15,0.29,0.05,0.65-0.24,0.8c-0.1,0.05-0.22,0.08-0.33,0.07h-2.92c-0.44,0.03-0.84-0.25-0.97-0.67l-1.65-3.61H463.2
			l-1.65,3.61c-0.15,0.41-0.54,0.68-0.98,0.67h-2.92c-0.32,0.03-0.61-0.2-0.65-0.53C457,1847.61,457.02,1847.49,457.08,1847.39z
			 M471.6,1840.27l-3.36-7.35h-0.1l-3.29,7.35H471.6z"/>
		<path id="Path_42" class="st0" d="M481.45,1824.65h-8.06c-0.06,0-0.11,0.01-0.17,0.03l1.87,4.05l0,0l0.01,0.02l2.09-0.01h3.85
			c4.27,0.05,7.7,3.55,7.65,7.83c-0.04,3.75-2.78,6.94-6.48,7.54l1.81,3.93c6.39-1.36,10.46-7.64,9.11-14.02
			C491.95,1828.51,487.07,1824.59,481.45,1824.65L481.45,1824.65z"/>
	</g>
	<g class="st1">
		<path class="st0" d="M157.67,693.49c0.97,0,1.81,0.09,2.5,0.27c0.69,0.18,1.25,0.44,1.69,0.78s0.75,0.75,0.96,1.22
			c0.2,0.48,0.3,1.02,0.3,1.61c0,0.33-0.05,0.65-0.15,0.96s-0.25,0.59-0.45,0.87c-0.2,0.27-0.47,0.51-0.79,0.74
			c-0.32,0.22-0.7,0.41-1.14,0.56c0.99,0.23,1.72,0.61,2.19,1.14c0.47,0.53,0.71,1.21,0.71,2.05c0,0.61-0.12,1.18-0.36,1.71
			c-0.24,0.53-0.58,0.98-1.03,1.37c-0.45,0.39-1.01,0.69-1.68,0.91c-0.66,0.22-1.42,0.33-2.28,0.33h-5.62v-14.51H157.67z
			 M155.52,695.77v3.92h1.97c0.42,0,0.79-0.04,1.12-0.11s0.6-0.18,0.82-0.33c0.22-0.15,0.39-0.36,0.5-0.61s0.17-0.55,0.17-0.9
			c0-0.36-0.05-0.67-0.15-0.92c-0.1-0.25-0.24-0.46-0.44-0.61s-0.45-0.26-0.76-0.33s-0.67-0.11-1.09-0.11H155.52z M158.09,705.7
			c0.48,0,0.88-0.06,1.19-0.17c0.31-0.12,0.56-0.27,0.75-0.47c0.19-0.19,0.32-0.42,0.39-0.67c0.07-0.25,0.11-0.51,0.11-0.77
			c0-0.29-0.04-0.56-0.13-0.79c-0.09-0.23-0.23-0.43-0.42-0.59c-0.19-0.16-0.45-0.29-0.76-0.38c-0.31-0.09-0.69-0.13-1.15-0.13
			h-2.55v3.97H158.09z"/>
		<path class="st0" d="M174.77,697.69l-5.56,13.08c-0.09,0.19-0.19,0.33-0.31,0.42c-0.12,0.09-0.32,0.14-0.58,0.14h-2.05l1.95-4.16
			l-4.14-9.48h2.42c0.22,0,0.39,0.05,0.51,0.15c0.12,0.1,0.21,0.22,0.26,0.35l1.96,4.93c0.07,0.19,0.14,0.39,0.2,0.58
			c0.06,0.2,0.11,0.39,0.16,0.58c0.12-0.39,0.26-0.79,0.41-1.18l1.82-4.92c0.05-0.15,0.15-0.27,0.29-0.36
			c0.14-0.09,0.29-0.14,0.46-0.14H174.77z"/>
	</g>
</g>
</svg>
