<svg xmlns="http://www.w3.org/2000/svg" width="59.228" height="62.074" viewBox="0 0 59.228 62.074">
  <g id="Group_8" data-name="Group 8" transform="translate(-473.964 -990.393)">
    <circle id="Ellipse_2" data-name="Ellipse 2" cx="6.032" cy="6.032" r="6.032" transform="translate(498.33 990.393)" fill="#fff"/>
    <circle id="Ellipse_3" data-name="Ellipse 3" cx="3.624" cy="3.624" r="3.624" transform="matrix(0.235, -0.972, 0.972, 0.235, 499.988, 1050.764)" fill="#fff"/>
    <circle id="Ellipse_4" data-name="Ellipse 4" cx="2.996" cy="2.996" r="2.996" transform="translate(527.201 1019.263)" fill="#fff"/>
    <circle id="Ellipse_5" data-name="Ellipse 5" cx="4.565" cy="4.565" r="4.565" transform="translate(473.964 1017.695)" fill="#fff"/>
    <circle id="Ellipse_6" data-name="Ellipse 6" cx="5.459" cy="5.459" r="5.459" transform="translate(483.58 999.748) rotate(-43.053)" fill="#fff"/>
    <circle id="Ellipse_7" data-name="Ellipse 7" cx="4.125" cy="4.125" r="4.125" transform="translate(485.864 1042.459) rotate(-23.629)" fill="#fff"/>
    <circle id="Ellipse_8" data-name="Ellipse 8" cx="1.922" cy="1.922" r="1.922" transform="translate(515.103 1001.495) rotate(-78.098)" fill="#fff"/>
    <circle id="Ellipse_9" data-name="Ellipse 9" cx="3.513" cy="3.513" r="3.513" transform="translate(512.413 1044.584) rotate(-45)" fill="#fff"/>
    <circle id="Ellipse_10" data-name="Ellipse 10" cx="5.127" cy="5.127" r="5.127" transform="translate(474.951 1006.75) rotate(-24.254)" fill="#fff"/>
    <circle id="Ellipse_11" data-name="Ellipse 11" cx="4.501" cy="4.501" r="4.501" transform="translate(477.23 1030.449)" fill="#fff"/>
    <circle id="Ellipse_12" data-name="Ellipse 12" cx="2.466" cy="2.466" r="2.466" transform="translate(523.674 1011.273) rotate(-76.635)" fill="#fff"/>
    <circle id="Ellipse_13" data-name="Ellipse 13" cx="3.288" cy="3.288" r="3.288" transform="translate(522.708 1037.755) rotate(-77.2)" fill="#fff"/>
  </g>
</svg>
