<svg xmlns="http://www.w3.org/2000/svg" xmlns:xlink="http://www.w3.org/1999/xlink" width="75.865" height="78.696" viewBox="0 0 75.865 78.696">
  <defs>
    <filter id="Path_951" x="0" y="0" width="75.865" height="78.696" filterUnits="userSpaceOnUse">
      <feOffset dy="3" input="SourceAlpha"/>
      <feGaussianBlur stdDeviation="3" result="blur"/>
      <feFlood flood-opacity="0.161"/>
      <feComposite operator="in" in2="blur"/>
      <feComposite in="SourceGraphic"/>
    </filter>
  </defs>
  <g id="Group_358" data-name="Group 358" transform="translate(-1348 -761)">
    <g transform="matrix(1, 0, 0, 1, 1348, 761)" filter="url(#Path_951)">
      <path id="Path_951-2" data-name="Path 951" d="M-538.219,757.425l0-.007h0c-.669-.973-1.983-1.717-3.9-2.519-1.147-.48-2.51-.982-4.078-1.565-.523-.2-1.015-.394-1.478-.593a41.435,41.435,0,0,1-4.144-2.112v-.009a5.171,5.171,0,0,0-1.513-.688v-.016h-12.262v.012a5,5,0,0,0-1.534.692l0,.008a37.328,37.328,0,0,1-5.623,2.706c-1.568.583-2.931,1.085-4.079,1.565a11.27,11.27,0,0,0-3.417,1.96,3.683,3.683,0,0,0-.479.559l-.029.052c-.3.544-5.389,9.694-7.653,16.674a5.149,5.149,0,0,0,1.795,2.005,15,15,0,0,0,2.847,1.665,15.356,15.356,0,0,0,3.718,1.142l.024,0c.3.049.6.091.9.119.078.007.156.008.233.014.227.017.454.036.682.04h.025c.32.005.64,0,.959-.027.259-.7.507-1.33.749-1.917h0c.169-.411.335-.8.493-1.157.4-.906.764-1.632,1.065-2.2l.321,34.834h0l.132.037.007,0a53.465,53.465,0,0,0,7.254,1.4l.019,0h0a60.274,60.274,0,0,0,7.661.5,62.186,62.186,0,0,0,9.275-.692l.231-.035c.721-.112,1.381-.228,1.977-.343l.066-.012c.621-.121,1.169-.238,1.639-.346l.012,0c.47-.108.86-.206,1.166-.287l.027-.007c.3-.079.51-.139.635-.176l.025-.008.121-.036.321-34.834c.3.565.662,1.291,1.065,2.2.158.356.324.747.494,1.158h0c.242.587.491,1.213.749,1.916q.478.035.956.027c.232,0,.463-.021.694-.038.08-.006.162-.007.242-.015.3-.028.6-.069.9-.118l.019,0c.04-.006.081-.009.121-.016a15.777,15.777,0,0,0,5.156-1.927,13.538,13.538,0,0,0,1.3-.865,5.153,5.153,0,0,0,1.794-2.005C-532.865,766.978-538.175,757.5-538.219,757.425Z" transform="translate(597.41 -743.92)" fill="#fff"/>
    </g>
    <g id="Group_357" data-name="Group 357">
      <g id="Group_356" data-name="Group 356" transform="translate(1035.802 175.792)">
        <g id="Group_83" data-name="Group 83" transform="translate(320.86 591.027)">
          <g id="Group_66" data-name="Group 66" transform="translate(0 0)">
            <rect id="Rectangle_122" data-name="Rectangle 122" width="12.358" height="11.495" transform="translate(22.964 0.513)" fill="#c6c6c6"/>
            <rect id="Rectangle_123" data-name="Rectangle 123" width="12.334" height="1.869" transform="translate(22.945)" fill="#fff"/>
            <path id="Path_97" data-name="Path 97" d="M939.13,48.019S933.75,57.6,931.4,64.843c.587,1.761,5.967,5.38,11.249,4.989a31.733,31.733,0,0,1,3.228-6.847S946.271,50.464,939.13,48.019Z" transform="translate(-931.403 -40.474)" fill="#fff"/>
            <path id="Path_98" data-name="Path 98" d="M1017.076,48.019s5.38,9.586,7.728,16.824c-.588,1.761-5.967,5.38-11.249,4.989a31.732,31.732,0,0,0-3.228-6.847S1009.935,50.464,1017.076,48.019Z" transform="translate(-966.6 -40.474)" fill="#fff"/>
            <g id="Group_59" data-name="Group 59" transform="translate(43.724 15.785)" opacity="0.2">
              <path id="Path_99" data-name="Path 99" d="M1011.066,62.891a28.824,28.824,0,0,0-.739,6.726,31.734,31.734,0,0,1,3.228,6.847,12.359,12.359,0,0,0,3.742-.333C1014.1,67.434,1011.4,63.384,1011.066,62.891Z" transform="translate(-1010.324 -62.891)" fill="#00394f"/>
            </g>
            <g id="Group_60" data-name="Group 60" transform="translate(7.49 15.766)" opacity="0.1">
              <path id="Path_100" data-name="Path 100" d="M951.165,62.858c-.248.355-2.982,4.384-6.243,13.255a12.394,12.394,0,0,0,3.759.336,31.732,31.732,0,0,1,3.228-6.847A28.859,28.859,0,0,0,951.165,62.858Z" transform="translate(-944.922 -62.858)" fill="#00394f"/>
            </g>
            <path id="Path_101" data-name="Path 101" d="M980.079,37.847c-4.206-1.565-6.456-3.423-7.238-3.423,0,0,1.64,4.454-6.107,6.011-7.765-2.064-6.124-6.011-6.124-6.011-.782,0-3.032,1.859-7.238,3.423s-6.945,2.543-8.02,4.109c1.467,1.174,6.162,3.814,6.162,15.846V93.5a58.605,58.605,0,0,0,15.161,1.956A55.369,55.369,0,0,0,981.937,93.5V57.8c0-12.032,4.7-14.672,6.162-15.846C987.024,40.391,984.285,39.412,980.079,37.847Z" transform="translate(-937.624 -34.41)" fill="#fff"/>
            <g id="Group_61" data-name="Group 61" transform="translate(0 23.697)">
              <path id="Path_102" data-name="Path 102" d="M931.621,77.173a4.914,4.914,0,0,0-.218.672c.587,1.761,5.967,5.38,11.249,4.989.26-.707.023-.157.266-.747C938.567,82.242,933.168,79.134,931.621,77.173Z" transform="translate(-931.403 -77.173)" fill="#ededed"/>
            </g>
            <g id="Group_62" data-name="Group 62" transform="translate(46.695 23.743)">
              <path id="Path_103" data-name="Path 103" d="M1027,77.255c-1.53,1.934-6.946,5.069-11.314,4.908a7.527,7.527,0,0,1,.26.707c5.282.391,10.662-3.228,11.249-4.989A4.68,4.68,0,0,0,1027,77.255Z" transform="translate(-1015.687 -77.255)" fill="#ededed"/>
            </g>
            <g id="Group_65" data-name="Group 65" transform="translate(12.321 13.388)" opacity="0.1">
              <g id="Group_63" data-name="Group 63" transform="translate(24.536)">
                <path id="Path_104" data-name="Path 104" d="M999.023,74.029c-.337,9.783-.844,24.5-1.093,31.713a46.287,46.287,0,0,0,7.457-1.472v-35.7a27.165,27.165,0,0,1,1.568-10A19.336,19.336,0,0,0,999.023,74.029Z" transform="translate(-997.93 -58.565)" fill="#00394f"/>
              </g>
              <g id="Group_64" data-name="Group 64">
                <path id="Path_105" data-name="Path 105" d="M962.667,105.724c-.249-7.215-.756-21.92-1.093-31.694a19.333,19.333,0,0,0-7.931-15.464,27.169,27.169,0,0,1,1.568,10v35.7A52.133,52.133,0,0,0,962.667,105.724Z" transform="translate(-953.643 -58.565)" fill="#00394f"/>
              </g>
            </g>
            <path id="Path_106" data-name="Path 106" d="M941.694,47.508c1.337-2.732,2.368-4.641,2.368-4.641,1.04-1.565,3.687-2.543,7.752-4.108,3.875-1.491,6.016-3.231,6.864-3.392a5.369,5.369,0,0,1-.073-.943c-.782,0-3.032,1.859-7.238,3.423s-6.945,2.543-8.021,4.109c0,0-1.086,1.943-2.489,4.717Z" transform="translate(-935.62 -34.41)" fill="#fff"/>
            <path id="Path_107" data-name="Path 107" d="M1001.7,38.759c4.065,1.565,6.712,2.543,7.752,4.108,0,0,.981,1.816,2.269,4.439l.834-.834c-1.355-2.67-2.388-4.516-2.388-4.516-1.076-1.565-3.815-2.544-8.021-4.109s-6.455-3.423-7.238-3.423a5.368,5.368,0,0,1-.073.943C995.686,35.528,997.827,37.268,1001.7,38.759Z" transform="translate(-959.693 -34.41)" fill="#fff"/>
            <path id="Path_108" data-name="Path 108" d="M977.742,40.427c6.794,0,7.691-4.727,7.691-5.317a4.657,4.657,0,0,0-1.584-.7s.776,4.279-6.115,4.279c-6.4,0-6.115-4.279-6.115-4.279a4.666,4.666,0,0,0-1.584.7S971.006,40.427,977.742,40.427Z" transform="translate(-948.632 -34.402)" fill="#fff"/>
            <rect id="Rectangle_124" data-name="Rectangle 124" width="12.334" height="1.869" transform="translate(22.945)" fill="#ededed"/>
            <path id="Path_109" data-name="Path 109" d="M977.742,40.427c6.794,0,7.691-4.727,7.691-5.317a4.657,4.657,0,0,0-1.584-.7s.776,4.279-6.115,4.279c-6.4,0-6.115-4.279-6.115-4.279a4.666,4.666,0,0,0-1.584.7S971.006,40.427,977.742,40.427Z" transform="translate(-948.632 -34.402)" fill="#ededed"/>
          </g>
          <g id="Group_68" data-name="Group 68" transform="translate(20.09 15.491)">
            <g id="Group_67" data-name="Group 67">
              <path id="Path_110" data-name="Path 110" d="M977.327,62.36a9.366,9.366,0,0,1,4.83,1.3,9.768,9.768,0,0,1,3.526,3.526,9.593,9.593,0,0,1,0,9.66,9.762,9.762,0,0,1-3.526,3.525,9.59,9.59,0,0,1-9.66,0,9.762,9.762,0,0,1-3.526-3.525,9.592,9.592,0,0,1,0-9.66,9.768,9.768,0,0,1,3.526-3.526A9.367,9.367,0,0,1,977.327,62.36Zm5.61,10.751V70.93a.466.466,0,0,0-.468-.468h-3.584V66.879a.465.465,0,0,0-.468-.468h-2.181a.465.465,0,0,0-.468.468v3.584h-3.584a.465.465,0,0,0-.467.468v2.181a.465.465,0,0,0,.467.468h3.584v3.584a.465.465,0,0,0,.468.467h2.181a.465.465,0,0,0,.468-.467V73.579h3.584a.466.466,0,0,0,.468-.468Z" transform="translate(-967.666 -62.36)" fill="#878787"/>
            </g>
          </g>
        </g>
      </g>
    </g>
  </g>
</svg>
